<mxfile modified="2023-08-18T09:12:15.310Z" host="app.diagrams.net" agent="Mozilla/5.0 (Windows NT 10.0; Win64; x64) AppleWebKit/537.36 (KHTML, like Gecko) Chrome/115.0.0.0 Safari/537.36 Edg/115.0.1901.203" etag="4IIy9BmiUsNGtEg6eSRu" version="21.6.8" type="github">
  <diagram id="C2fSY1v2SiZeoUbDoYyL" name="Page-1">
    <mxGraphModel dx="1050" dy="549" grid="1" gridSize="10" guides="1" tooltips="1" connect="1" arrows="1" fold="1" page="1" pageScale="1" pageWidth="1169" pageHeight="827" math="0" shadow="0">
      <root>
        <mxCell id="0" />
        <mxCell id="1" parent="0" />
        <mxCell id="3ne1QswCM8ZiEu4GHsYG-19" style="orthogonalLoop=1;jettySize=auto;html=1;curved=1;sourcePerimeterSpacing=5;targetPerimeterSpacing=5;" parent="1" source="3ne1QswCM8ZiEu4GHsYG-4" target="3ne1QswCM8ZiEu4GHsYG-10" edge="1">
          <mxGeometry relative="1" as="geometry" />
        </mxCell>
        <mxCell id="3ne1QswCM8ZiEu4GHsYG-4" value="想说的话" style="shape=image;verticalLabelPosition=bottom;verticalAlign=top;aspect=fixed;image=data:image/svg+xml,PHN2ZyB4bWxucz0iaHR0cDovL3d3dy53My5vcmcvMjAwMC9zdmciIHhtbG5zOnhsaW5rPSJodHRwOi8vd3d3LnczLm9yZy8xOTk5L3hsaW5rIiB2ZXJzaW9uPSIxLjEiIGlkPSJMYXllcl8xIiB4PSIwcHgiIHk9IjBweCIgd2lkdGg9IjQ4cHgiIGhlaWdodD0iNDhweCIgdmlld0JveD0iMCAwIDQ4IDQ4IiBlbmFibGUtYmFja2dyb3VuZD0ibmV3IDAgMCA0OCA0OCIgeG1sOnNwYWNlPSJwcmVzZXJ2ZSI+JiN4YTs8ZyBpZD0iY29sb3JfMjNfIj4mI3hhOwk8Zz4mI3hhOwkJPHBhdGggZmlsbD0iI0ZGREE4RSIgZD0iTTQxLDI5VjdjMC0wLjU1My0wLjQ0Ny0xLTEtMUgyNHY3YzAsMC41NTMtMC40NDcsMS0xLDFoLTNjLTAuNTUzLDAtMS0wLjQ0Ny0xLTFWNmgtNSAgICBjLTAuNTUzLDAtMSwwLjQ0Ny0xLDF2MjJjMCwwLjU1MywwLjQ0NywxLDEsMWgyNkM0MC41NTMsMzAsNDEsMjkuNTUzLDQxLDI5eiBNMTAuNSwzN0M5LjExOSwzNyw4LDM4LjExOSw4LDM5LjVTOS4xMTksNDIsMTAuNSw0MiAgICBzMi41LTEuMTE5LDIuNS0yLjVTMTEuODgxLDM3LDEwLjUsMzd6IE0yMC41LDM3Yy0xLjM4MSwwLTIuNSwxLjExOS0yLjUsMi41czEuMTE5LDIuNSwyLjUsMi41czIuNS0xLjExOSwyLjUtMi41ICAgIFMyMS44ODEsMzcsMjAuNSwzN3ogTTMwLjUsMzdjLTEuMzgxLDAtMi41LDEuMTE5LTIuNSwyLjVzMS4xMTksMi41LDIuNSwyLjVzMi41LTEuMTE5LDIuNS0yLjVTMzEuODgxLDM3LDMwLjUsMzd6IE00MC41LDM3ICAgIGMtMS4zODEsMC0yLjUsMS4xMTktMi41LDIuNXMxLjExOSwyLjUsMi41LDIuNXMyLjUtMS4xMTksMi41LTIuNVM0MS44ODEsMzcsNDAuNSwzN3oiLz4mI3hhOwk8L2c+JiN4YTs8L2c+JiN4YTs8ZyBpZD0ib3V0bGluZV8yMl8iPiYjeGE7CTxnPiYjeGE7CQk8cGF0aCBmaWxsLXJ1bGU9ImV2ZW5vZGQiIGNsaXAtcnVsZT0iZXZlbm9kZCIgZmlsbD0iIzM4NEQ2OCIgZD0iTTIyLDM4YzAtMS42NTctMS4zNDQtMy0zLTNzLTMsMS4zNDMtMywzczEuMzQ0LDMsMywzICAgIFMyMiwzOS42NTcsMjIsMzh6IE0xOCwzOGMwLTAuNTUzLDAuNDQ3LTEsMS0xczEsMC40NDcsMSwxcy0wLjQ0NywxLTEsMVMxOCwzOC41NTMsMTgsMzh6IE00MiwzOGMwLTEuNjU3LTEuMzQzLTMtMy0zICAgIHMtMywxLjM0My0zLDNzMS4zNDMsMywzLDNTNDIsMzkuNjU3LDQyLDM4eiBNMzgsMzhjMC0wLjU1MywwLjQ0Ny0xLDEtMXMxLDAuNDQ3LDEsMXMtMC40NDcsMS0xLDFTMzgsMzguNTUzLDM4LDM4eiBNMzIsMzggICAgYzAtMS42NTctMS4zNDMtMy0zLTNzLTMsMS4zNDMtMywzczEuMzQzLDMsMywzUzMyLDM5LjY1NywzMiwzOHogTTI4LDM4YzAtMC41NTMsMC40NDctMSwxLTFzMSwwLjQ0NywxLDFzLTAuNDQ3LDEtMSwxICAgIFMyOCwzOC41NTMsMjgsMzh6IE0xMiwzOGMwLTEuNjU3LTEuMzQ0LTMtMy0zcy0zLDEuMzQzLTMsM3MxLjM0NCwzLDMsM1MxMiwzOS42NTcsMTIsMzh6IE04LDM4YzAtMC41NTMsMC40NDctMSwxLTFzMSwwLjQ0NywxLDEgICAgcy0wLjQ0NywxLTEsMVM4LDM4LjU1Myw4LDM4eiBNMzksMzFIM2MtMC41NTMsMC0xLDAuNDQ3LTEsMXMwLjQ0NywxLDEsMWgzNmMyLjc2MiwwLDUsMi4yMzgsNSw1cy0yLjIzOCw1LTUsNUgzICAgIGMtMC41NTMsMC0xLDAuNDQ3LTEsMXMwLjQ0NywxLDEsMWgzNmMzLjg2NiwwLDctMy4xMzQsNy03UzQyLjg2NiwzMSwzOSwzMXogTTEwLDI5aDI4YzAuNTUzLDAsMS0wLjQ0NywxLTFWNGMwLTAuNTUzLTAuNDQ3LTEtMS0xICAgIEgxMEM5LjQ0NywzLDksMy40NDcsOSw0djI0QzksMjguNTUzLDkuNDQ3LDI5LDEwLDI5eiBNMjksNmMwLTAuNTUzLDAuNDQ3LTEsMS0xaDd2MjJoLTdjLTAuNTUzLDAtMS0wLjQ0Ny0xLTFWNnogTTE4LDVoMnY2aC0yVjV6ICAgICBNMTEsNWg1djdjMCwwLjU1MywwLjQ0NywxLDEsMWg0YzAuNTUzLDAsMS0wLjQ0NywxLTFWNWg0YzAuNTUzLDAsMSwwLjQ0NywxLDF2MjBjMCwwLjU1My0wLjQ0NywxLTEsMUgxMVY1eiIvPiYjeGE7CTwvZz4mI3hhOzwvZz4mI3hhOzwvc3ZnPg==;direction=south;" parent="1" vertex="1">
          <mxGeometry x="234.5" y="327.00000000000034" width="48" height="48" as="geometry" />
        </mxCell>
        <mxCell id="3ne1QswCM8ZiEu4GHsYG-17" style="orthogonalLoop=1;jettySize=auto;html=1;curved=1;sourcePerimeterSpacing=5;targetPerimeterSpacing=5;" parent="1" source="3ne1QswCM8ZiEu4GHsYG-5" target="3ne1QswCM8ZiEu4GHsYG-9" edge="1">
          <mxGeometry relative="1" as="geometry" />
        </mxCell>
        <mxCell id="3ne1QswCM8ZiEu4GHsYG-5" value="登录" style="shape=image;verticalLabelPosition=bottom;verticalAlign=top;aspect=fixed;image=data:image/svg+xml,PHN2ZyB4bWxucz0iaHR0cDovL3d3dy53My5vcmcvMjAwMC9zdmciIHhtbG5zOnhsaW5rPSJodHRwOi8vd3d3LnczLm9yZy8xOTk5L3hsaW5rIiB2ZXJzaW9uPSIxLjEiIGlkPSJMYXllcl8xIiB4PSIwcHgiIHk9IjBweCIgd2lkdGg9IjQ4cHgiIGhlaWdodD0iNDhweCIgdmlld0JveD0iMCAwIDQ4IDQ4IiBlbmFibGUtYmFja2dyb3VuZD0ibmV3IDAgMCA0OCA0OCIgeG1sOnNwYWNlPSJwcmVzZXJ2ZSI+JiN4YTs8ZyBpZD0iY29sb3JfMjlfIj4mI3hhOwk8Zz4mI3hhOwkJPHBhdGggZmlsbD0iI0ZGREE4RSIgZD0iTTQ1LjQzOCwxNy4wOTZsMC4wMDMtMC4wMDdsLTE5LTlsLTAuMDAzLDAuMDA3Yy0wLjEzLTAuMDYzLTAuMjcyLTAuMTA0LTAuNDI3LTAuMTA0ICAgIHMtMC4yOTcsMC4wNDEtMC40MjcsMC4xMDRsLTAuMDAzLTAuMDA3bC0xOSw5bDAuMDAzLDAuMDA3Yy0wLjMzNiwwLjE2MS0wLjU3MywwLjQ5OS0wLjU3MywwLjg5NnYxNyAgICBjMCwwLjM5NywwLjIzNywwLjczNSwwLjU3MywwLjg5NmwtMC4wMDMsMC4wMDdsMjAsMTBsMC4wMDMtMC4wMDdjMC4xMywwLjA2MywwLjI3MiwwLjEwNCwwLjQyNywwLjEwNHMwLjI5Ny0wLjA0MSwwLjQyNy0wLjEwNCAgICBsMC4wMDMsMC4wMDdsMTgtOS4wMDFsLTAuMDAzLTAuMDA2YzAuMzM3LTAuMTYxLDAuNTczLTAuNDk5LDAuNTczLTAuODk2di0xOEM0Ni4wMTEsMTcuNTk1LDQ1Ljc3NSwxNy4yNTcsNDUuNDM4LDE3LjA5NnoiLz4mI3hhOwk8L2c+JiN4YTs8L2c+JiN4YTs8ZyBpZD0ib3V0bGluZV8yOF8iPiYjeGE7CTxnPiYjeGE7CQk8cGF0aCBmaWxsPSIjMzg0RDY4IiBkPSJNMy43MTMsMTAuNjczTDYuNTcsNy41MjFjNC43MzYtNC43MzUsOS43MDctNC43MjEsMTQuNDI4LDBsMi42MTEsMi40NzRsLTQuNTk4LTAuMDAyICAgIGMtMC41MzQtMC4wMDEtMS4wMDEsMC40NzUtMSwxczAuNDY2LDAuOTk5LDEsMWw3LjAyMSwwLjAwM2MwLjUzNSwwLjAwMiwwLjk4LTAuNDc4LDAuOTc5LTEuMDAzdi03Yy0wLjAwMi0wLjUyNS0wLjQ2Ni0wLjk5OS0xLTEgICAgcy0xLjAwMiwwLjQ3NS0xLDFsLTAuMDE2LDQuNzEzbC0yLjU3LTIuNTg5Yy01LjUwNS01LjUwNS0xMS44MzItNS40NTMtMTcuMjg0LDBMMi4yODUsOS4yNjljLTAuMzk1LDAuMzg4LTAuMzk1LDEuMDE3LDAsMS40MDQgICAgUzMuMzE5LDExLjA2MSwzLjcxMywxMC42NzN6IE00NS45NDEsMTUuNjQ2Yy0wLjAxMi0wLjAzNC0wLjAyOC0wLjA2My0wLjA0NS0wLjA5NmMtMC4wMzctMC4wNzQtMC4wODItMC4xNDEtMC4xMzUtMC4yMDIgICAgYy0wLjAyNC0wLjAyNy0wLjA0NS0wLjA1Ny0wLjA3Mi0wLjA4MmMtMC4wNzQtMC4wNjktMC4xNTYtMC4xMjktMC4yNDktMC4xNzRsMC4wMDEtMC4wMDNMMzAuNDM1LDguMDk0ICAgIGMtMC4xMy0wLjA2Mi0wLjI3MS0wLjEwMi0wLjQyNC0wLjEwMmMtMC41NTMsMC0xLDAuNDQ3LTEsMWMwLDAuNzI1LDAuODg2LDEuMDY2LDAuNzk4LDEuMDA1bC0wLjE3My0wLjA4ICAgIGMwLjExMiwwLjA0NSwwLjE1NSwwLjA2NywwLjE3MywwLjA4bDEyLjg3Niw1Ljk5NWwtMTIuNTE3LDUuOTYxbC01LjE1Ny0yLjU3OXYtNC4zODJjMC0wLjU1My0wLjQ0Ny0xLTEtMWMtMC41NTIsMC0xLDAuNDQ3LTEsMSAgICB2NC4zODJsLTUuMTU3LDIuNTc5TDUuMzM3LDE1Ljk5M2w4Ljk4OC00LjA2M2MwLjM5Ni0wLjEzMywwLjY4Ni0wLjQ5NSwwLjY4Ni0wLjkzN2MwLTAuNTUzLTAuNDQ4LTEtMS0xICAgIGMtMC4yNDEsMC0wLjM0MSwwLjA0Ni0wLjM0MSwwLjA0NkwyLjU4MiwxNS4wODlsMC4wMDEsMC4wMDNjLTAuMDkzLDAuMDQ1LTAuMTc1LDAuMTA0LTAuMjUsMC4xNzQgICAgYy0wLjAyNywwLjAyNS0wLjA0NywwLjA1NS0wLjA3MSwwLjA4MmMtMC4wNTMsMC4wNjItMC4wOTksMC4xMjgtMC4xMzYsMC4yMDJjLTAuMDE2LDAuMDMyLTAuMDMyLDAuMDYyLTAuMDQ1LDAuMDk2ICAgIGMtMC4wNDEsMC4xMDktMC4wNywwLjIyNC0wLjA3LDAuMzQ3djE5YzAsMC4zOTgsMC4yMzQsMC43MzksMC41NzEsMC45bC0wLjAwMSwwLjAwM2wyMSwxMGwwLjAwMS0wLjAwMyAgICBjMC4xMywwLjA2MiwwLjI3NCwwLjEsMC40MjksMC4xczAuMjk5LTAuMDM4LDAuNDI5LTAuMWwwLjAwMSwwLjAwM2wyMS0xMGwtMC4wMDEtMC4wMDNjMC4zMzctMC4xNjEsMC41NzEtMC41MDIsMC41NzEtMC45di0xOSAgICBDNDYuMDExLDE1Ljg3LDQ1Ljk4MiwxNS43NTUsNDUuOTQxLDE1LjY0NnogTTIzLjAxMSw0My40MDlsLTE5LTkuMDQ4VjE3LjU3N2wxOSw5LjA0OFY0My40MDl6IE0yNC4wMTEsMjQuODg1bC0zLjg2Ni0xLjg0MiAgICBsMy44NjYtMS45MzNsMy44NjYsMS45MzNMMjQuMDExLDI0Ljg4NXogTTQ0LjAxMSwzNC4zNjFsLTE5LDkuMDQ4VjI2LjYyNWwxOS05LjA0OFYzNC4zNjF6Ii8+JiN4YTsJPC9nPiYjeGE7PC9nPiYjeGE7PC9zdmc+" parent="1" vertex="1">
          <mxGeometry x="36.5" y="327.00000000000034" width="48" height="48" as="geometry" />
        </mxCell>
        <mxCell id="3ne1QswCM8ZiEu4GHsYG-18" style="orthogonalLoop=1;jettySize=auto;html=1;curved=1;sourcePerimeterSpacing=5;targetPerimeterSpacing=5;" parent="1" source="3ne1QswCM8ZiEu4GHsYG-9" target="3ne1QswCM8ZiEu4GHsYG-4" edge="1">
          <mxGeometry relative="1" as="geometry" />
        </mxCell>
        <mxCell id="3ne1QswCM8ZiEu4GHsYG-9" value="信封打开" style="shape=image;verticalLabelPosition=bottom;verticalAlign=top;aspect=fixed;image=data:image/svg+xml,PHN2ZyB4bWxucz0iaHR0cDovL3d3dy53My5vcmcvMjAwMC9zdmciIHhtbG5zOnhsaW5rPSJodHRwOi8vd3d3LnczLm9yZy8xOTk5L3hsaW5rIiB2ZXJzaW9uPSIxLjEiIGlkPSJMYXllcl8xIiB4PSIwcHgiIHk9IjBweCIgd2lkdGg9IjQ4cHgiIGhlaWdodD0iNDhweCIgdmlld0JveD0iMCAwIDQ4IDQ4IiBlbmFibGUtYmFja2dyb3VuZD0ibmV3IDAgMCA0OCA0OCIgeG1sOnNwYWNlPSJwcmVzZXJ2ZSI+JiN4YTs8ZyBpZD0iY29sb3JfMzdfIj4mI3hhOwk8Zz4mI3hhOwkJPHBhdGggZmlsbD0iI0ZGREE4RSIgZD0iTTM0LDhMMTMsMThjMCwwLDAsOS4xNDYsMCwxMmMwLDAuMDc2LDAuMDE3LDAuMTQ4LDAuMDQ0LDAuMjE4QzEzLjE0NiwzMC42NjIsMTMuNTI1LDMxLDE0LDMxbDQuMzAzLDEuNzE0ICAgIEMxOC40ODMsMzIuODksMTguNzI5LDMzLDE5LDMzYzAuNTUzLDAsMS0wLjQ0NywxLTFjMC0wLjIsMC0xMCwwLTEwbDIxLTExTDM0LDh6Ii8+JiN4YTsJPC9nPiYjeGE7PC9nPiYjeGE7PGcgaWQ9Im91cmxpbmUiPiYjeGE7CTxnPiYjeGE7CQk8cGF0aCBmaWxsPSIjMzg0RDY4IiBkPSJNNDUuNDI3LDEyLjEwNGwwLjAwMy0wLjAwN2wtMjEtMTBDMjQuNDMsMi4wOTcsMjQuMzEzLDIsMjQsMnMtMC40MywwLjA5Ny0wLjQzLDAuMDk3bC0yMSwxMCAgICBjMCwwLDAuMDAxLDAuMDA0LDAuMDAyLDAuMDA1QzIuNDkzLDEyLjEzNiwyLDEyLjQwNCwyLDEzdjIyYzAsMC4zOTcsMC4yMzYsMC43MzUsMC41NzMsMC44OTZMMi41NywzNS45MDJsMjEsMTBsMC4wMDMtMC4wMDYgICAgQzIzLjcwNCw0NS45NTksMjMuODQ2LDQ2LDI0LDQ2czAuMjk2LTAuMDQxLDAuNDI3LTAuMTA0bDAuMDAzLDAuMDA2bDIxLTEwbC0wLjAwMy0wLjAwNkM0NS43NjQsMzUuNzM1LDQ2LDM1LjM5Nyw0NiwzNVYxMyAgICBDNDYsMTIuNzgxLDQ1Ljg3MiwxMi4zMTYsNDUuNDI3LDEyLjEwNHogTTM1LjAyNCw5LjM1N0wxNSwxOC42OTd2OS44MjZsLTMtMS4yVjE3bDE5LjczNi05LjIwOUwzNS4wMjQsOS4zNTd6IE0yNCw0LjEwNyAgICBsNS4zNzQsMi41NkwxMC43LDE1LjU1OUw1LjMyNiwxM0wyNCw0LjEwN3ogTTIzLDQzLjQxNkw0LDM0LjM2OFYxNC41ODRsNiwyLjg1N1YyOGMwLDAuNDIxLDAuMjYyLDAuNzc3LDAuNjMsMC45MjVsLTAuMDAxLDAuMDA0ICAgIGw0Ljk4MSwxLjk5MkMxNS4zODgsMzAuODI3LDE1Ljc1NSwzMSwxNiwzMWMwLjU1MywwLDEtMC40NDcsMS0xdi05LjIyNmw2LDIuODU3VjQzLjQxNnogTTI0LDIxLjg5M2wtNS40NzUtMi42MDdsMTguODQtOC44MTMgICAgTDQyLjY3NCwxM0wyNCwyMS44OTN6IE00NCwzNC4zNjhsLTE5LDkuMDQ4VjIzLjYzMmwxOS05LjA0OFYzNC4zNjh6Ii8+JiN4YTsJPC9nPiYjeGE7PC9nPiYjeGE7PC9zdmc+" parent="1" vertex="1">
          <mxGeometry x="136.5" y="327.0000000000002" width="48" height="48" as="geometry" />
        </mxCell>
        <mxCell id="3ne1QswCM8ZiEu4GHsYG-20" style="orthogonalLoop=1;jettySize=auto;html=1;curved=1;sourcePerimeterSpacing=5;targetPerimeterSpacing=5;" parent="1" source="3ne1QswCM8ZiEu4GHsYG-10" edge="1">
          <mxGeometry relative="1" as="geometry">
            <mxPoint x="411.5" y="351.00000000000034" as="targetPoint" />
          </mxGeometry>
        </mxCell>
        <mxCell id="3ne1QswCM8ZiEu4GHsYG-10" value="过度" style="shape=image;verticalLabelPosition=bottom;verticalAlign=top;aspect=fixed;image=data:image/svg+xml,PHN2ZyB4bWxucz0iaHR0cDovL3d3dy53My5vcmcvMjAwMC9zdmciIHhtbG5zOnhsaW5rPSJodHRwOi8vd3d3LnczLm9yZy8xOTk5L3hsaW5rIiB2ZXJzaW9uPSIxLjEiIGlkPSJMYXllcl8xIiB4PSIwcHgiIHk9IjBweCIgd2lkdGg9IjQ4cHgiIGhlaWdodD0iNDhweCIgdmlld0JveD0iMCAwIDQ4IDQ4IiBlbmFibGUtYmFja2dyb3VuZD0ibmV3IDAgMCA0OCA0OCIgeG1sOnNwYWNlPSJwcmVzZXJ2ZSI+JiN4YTs8ZyBpZD0iRWxsaXBzZV82X2NvcHkiPiYjeGE7CTxnPiYjeGE7CQk8cGF0aCBmaWxsPSIjRkZEQThFIiBkPSJNNDMuMTM3LDE1LjcyOEM0MS4wMjEsMTguNTc4LDM4LjUwNiwyMSwzOC41LDIxQzM4LjQ4LDIxLDMxLDEzLjc5NywzMSw5LjYgICAgYzAtMC45OTIsMC4xOTMtMS45MzgsMC41MzUtMi44MDdDMjkuNzc1LDYuMjg3LDI3LjkyMiw2LDI2LDZDMTQuOTU0LDYsNiwxNC45NTQsNiwyNnM4Ljk1NCwyMCwyMCwyMHMyMC04Ljk1NCwyMC0yMCAgICBDNDYsMjIuMjM4LDQ0Ljk0MiwxOC43MzIsNDMuMTM3LDE1LjcyOHoiLz4mI3hhOwk8L2c+JiN4YTs8L2c+JiN4YTs8ZyBpZD0iRWxsaXBzZV82Ij4mI3hhOwk8Zz4mI3hhOwkJPHBhdGggZmlsbD0iIzM4NEQ2OCIgZD0iTTM1LDE0YzIuMjA5LDAsNC0xLjc5MSw0LTRzLTEuNzkxLTQtNC00cy00LDEuNzkxLTQsNFMzMi43OTEsMTQsMzUsMTR6IE0zNSw4YzEuMTA0LDAsMiwwLjg5NiwyLDIgICAgcy0wLjg5NiwyLTIsMnMtMi0wLjg5Ni0yLTJTMzMuODk2LDgsMzUsOHogTTQ0LDE2Yy0wLjE4OC0wLjU4NC0wLjQ0Ny0xLTEtMWMtMS4yMzgsMC0xLjA3OCwxLjAzNS0wLjc3LDEuNjEzICAgIGMwLjcwMSwxLjg3OSwxLjYyOSw0LjQ5MywxLjcyMyw2LjM4N2gtNy4wNjRsLTEuMTc0LDEuMTc1Yy0wLjQwMywwLjQwMy0xLjA1NywwLjQwMy0xLjQ2MSwwTDMzLjA4LDIzSDI1di05YzAuNTUzLDAsMS0wLjQ0NywxLTEgICAgcy0wLjQ0Ny0xLTEtMVY1YzAuNTUzLDAsMS0wLjQ0NywxLTFjMC4xNSwwLjAxOCwwLjg1Mi0wLjAyMSwxLDBjMC41NTMsMCwxLTAuNDQ3LDEtMXMtMC40NDctMS0xLTFoLTNDMTEuODUsMiwyLDExLjg1LDIsMjQgICAgczkuODUsMjIsMjIsMjJzMjItOS44NSwyMi0yMkM0NiwyMS41NDYsNDQuOTk4LDE3LjkyLDQ0LDE2eiBNMjEuNjA0LDQuMTU3QzE4LjM2Niw1Ljk4OSwxNS43OTQsOC43MjYsMTMuOTksMTJIOC4wMDkgICAgQzExLjIwNiw3Ljc1NCwxNi4wNTUsNC44MiwyMS42MDQsNC4xNTd6IE02LjY5OSwxNGg2LjMxM2MtMS4xODYsMi43NjEtMS44NjUsNS44MTktMS45ODMsOUg0LjA0NyAgICBDNC4yMDksMTkuNzI5LDUuMTQ5LDE2LjY3LDYuNjk5LDE0eiBNNC4wNDcsMjVoNi45ODJjMC4xMTksMy4xODEsMC43OTcsNi4yMzksMS45ODMsOUg2LjY5OUM1LjE0OSwzMS4zMyw0LjIwOSwyOC4yNzEsNC4wNDcsMjV6ICAgICBNOC4wMDksMzZoNS45ODFjMS44MDQsMy4yNzQsNC4zNzYsNi4wMTEsNy42MTMsNy44NDNDMTYuMDU1LDQzLjE4LDExLjIwNiw0MC4yNDYsOC4wMDksMzZ6IE0yMyw0Mi41MDkgICAgYy0yLjg0OC0xLjQ4Ny01LjEzMS0zLjc1OS02Ljc5NC02LjUwOUgyM1Y0Mi41MDl6IE0yMywzNGgtNy44NjVjLTEuMjY2LTIuNzM2LTEuOTc5LTUuODE4LTIuMTA1LTlIMjNWMzR6IE0yMywyM2gtOS45NyAgICBjMC4xMjUtMy4xODIsMC44MzktNi4yNjQsMi4xMDUtOUgyM1YyM3ogTTIzLDEyaC02Ljc5NEMxNy44NjksOS4yNSwyMC4xNTIsNi45NzgsMjMsNS40OTFWMTJ6IE0yNSwyNWg5Ljk3ICAgIGMtMC4xMjUsMy4xODItMC44MzksNi4yNjQtMi4xMDQsOUgyNVYyNXogTTI1LDM2aDYuNzk0Yy0xLjY2MywyLjc1LTMuOTQ2LDUuMDIxLTYuNzk0LDYuNTA5VjM2eiBNMjYuMzk2LDQzLjg0MyAgICBjMy4yMzctMS44MzIsNS44MDktNC41NjgsNy42MTMtNy44NDNoNS45OEMzNi43OTQsNDAuMjQ2LDMxLjk0NSw0My4xOCwyNi4zOTYsNDMuODQzeiBNNDEuMzAxLDM0aC02LjMxMyAgICBjMS4xODYtMi43NjEsMS44NjQtNS44MTksMS45ODItOWg2Ljk4MkM0My43OTEsMjguMjcxLDQyLjg1MSwzMS4zMyw0MS4zMDEsMzR6IE0zNSwyMmMwLjAxMiwwLDgtNy41ODIsOC0xMnMtMy41ODItOC04LTggICAgcy04LDMuNTgyLTgsOFMzNC45OCwyMiwzNSwyMnogTTM1LDRjMy4zMTMsMCw2LDIuNjg3LDYsNnMtNS45NjgsOS02LDljLTAuMDAxLDAtNi01LjY4Ny02LTlTMzEuNjg2LDQsMzUsNHoiLz4mI3hhOwk8L2c+JiN4YTs8L2c+JiN4YTs8L3N2Zz4=" parent="1" vertex="1">
          <mxGeometry x="324.5" y="327.0000000000003" width="48" height="48" as="geometry" />
        </mxCell>
        <mxCell id="3ne1QswCM8ZiEu4GHsYG-31" value="Company Goods Delivery Procedure" style="text;html=1;strokeColor=none;fillColor=none;align=center;verticalAlign=middle;whiteSpace=wrap;rounded=0;fontStyle=1;fontSize=20;fontColor=#4D4D4D;" parent="1" vertex="1">
          <mxGeometry x="189.5" y="50" width="790" height="30" as="geometry" />
        </mxCell>
        <mxCell id="3ne1QswCM8ZiEu4GHsYG-32" value="" style="line;strokeWidth=2;html=1;fontSize=20;fontColor=#4D4D4D;" parent="1" vertex="1">
          <mxGeometry x="103.5" y="80" width="960" height="10" as="geometry" />
        </mxCell>
        <mxCell id="OFjB-EBOkoPBZUKba4H1-43" style="edgeStyle=orthogonalEdgeStyle;rounded=0;orthogonalLoop=1;jettySize=auto;html=1;" edge="1" parent="1" source="OFjB-EBOkoPBZUKba4H1-41" target="OFjB-EBOkoPBZUKba4H1-42">
          <mxGeometry relative="1" as="geometry" />
        </mxCell>
        <mxCell id="OFjB-EBOkoPBZUKba4H1-41" value="tree" style="shape=image;verticalLabelPosition=bottom;verticalAlign=top;aspect=fixed;image=data:image/svg+xml,PHN2ZyB4bWxucz0iaHR0cDovL3d3dy53My5vcmcvMjAwMC9zdmciIHhtbG5zOnhsaW5rPSJodHRwOi8vd3d3LnczLm9yZy8xOTk5L3hsaW5rIiB2ZXJzaW9uPSIxLjEiIGlkPSJMYXllcl8xIiB4PSIwcHgiIHk9IjBweCIgd2lkdGg9IjQ4cHgiIGhlaWdodD0iNDhweCIgdmlld0JveD0iMCAwIDQ4IDQ4IiBlbmFibGUtYmFja2dyb3VuZD0ibmV3IDAgMCA0OCA0OCIgeG1sOnNwYWNlPSJwcmVzZXJ2ZSI+JiN4YTs8ZyBpZD0iY29sb3JfNTlfIj4mI3hhOwk8Zz4mI3hhOwkJPHBhdGggZmlsbD0iI0YxNjM2MiIgZD0iTTQ0LDVIN0M2LjQ0OCw1LDYsNS40NDcsNiw2djM4YzAsMC41NTMsMC40NDgsMSwxLDFoMzdjMC41NTMsMCwxLTAuNDQ3LDEtMVY2QzQ1LDUuNDQ3LDQ0LjU1Myw1LDQ0LDV6Ii8+JiN4YTsJPC9nPiYjeGE7PC9nPiYjeGE7PGcgaWQ9Im91dGxpbmVfNTdfIj4mI3hhOwk8Zz4mI3hhOwkJPHBhdGggZmlsbD0iIzM4NEQ2OCIgZD0iTTQ1LDJIM0MyLjQ0OCwyLDIsMi40NDcsMiwzdjQyYzAsMC41NTMsMC40NDgsMSwxLDFoNDJjMC41NTMsMCwxLTAuNDQ3LDEtMVYzQzQ2LDIuNDQ3LDQ1LjU1MywyLDQ1LDJ6ICAgICBNNCw0aDE4YzAuNTUyLDAsMSwwLjQ0NywxLDF2MTFjLTAuMzAzLTAuNTg1LTAuNjktMS4wMDMtMS4xOTMtMS41MDJjLTIuMDE1LTIuMDA0LTUuMjgzLTIuMDA0LTcuMjk4LDAgICAgYy0yLjAxNiwyLjAwNC0yLjAxNiw1LjI1MywwLDcuMjU3QzE1LjAyOSwyMi4yNzIsMTUuNDQ1LDIyLjY4MSwxNiwyM0g1Yy0wLjU1MiwwLTEtMC40NDctMS0xVjR6IE0yMyw0M2MwLDAuNTUzLTAuNDQ4LDEtMSwxSDRWMjYgICAgYzAtMC41NTMsMC40NDgtMSwxLTFoMTQuODEzYy0wLjIxMywwLjE1NC0wLjQyNywwLjMwNy0wLjYyLDAuNDk4QzE3LjQyOSwyNy4yNTIsMTcuMDM3LDMzLjUyLDE3LDM1YzAsMC41NTMsMC40NDgsMSwxLDEgICAgczEtMC40NDcsMS0xYzAsMCwwLjAyNS01LjQwNCwxLjU5Ni03Ljk5NUMyMS4wODMsMjYuMjAzLDIyLjE0MSwyNC45NjMsMjMsMjVWNDN6IE0yMywyM2MtMC4xMjgsMC4xMjctNC4zODEtMC4wNDYtNi45NzYtMi42NDEgICAgYy0xLjIzNy0xLjIzNi0xLjI2NS0zLjIwNy0wLjA1Ni00LjQxYzEuMjA5LTEuMjAyLDMuMTk5LTEuMTgxLDQuNDM2LDAuMDU2QzIyLjk5OSwxOC42MDEsMjMuMDI5LDIyLjk3MSwyMywyM3ogTTQ0LDQ0SDI2ICAgIGMtMC41NTMsMC0xLTAuNDQ3LTEtMVYyNWMwLjg1OS0wLjAzNywxLjkxNywxLjIwMywyLjQwNCwyLjAwNUMyOC45NzUsMjkuNTk2LDI5LDM1LDI5LDM1YzAsMC41NTMsMC40NDcsMSwxLDFzMS0wLjQ0NywxLTEgICAgYy0wLjAzNy0xLjQ4LTAuNDI5LTcuNzQ4LTIuMTkzLTkuNTAyQzI4LjYxNSwyNS4zMDcsMjguNCwyNS4xNTQsMjguMTg4LDI1SDQzYzAuNTUzLDAsMSwwLjQ0NywxLDFWNDR6IE0yNy41ODYsMTYuMDE0ICAgIGMxLjIzNi0xLjIzNiwzLjIxNy0xLjI2Miw0LjQyMy0wLjA1NnMxLjE4MSwzLjE4Ni0wLjA1Niw0LjQyM0MyOS4zNTQsMjIuOTc5LDI1LjEyNywyMy4xMjcsMjUsMjMgICAgQzI0Ljk3MSwyMi45NzEsMjUuMDIyLDE4LjU3NywyNy41ODYsMTYuMDE0eiBNNDQsMjJjMCwwLjU1My0wLjQ0NywxLTEsMUgzMmMwLjQ3Ny0wLjMxNSwwLjk2MS0wLjcxNywxLjQ2NS0xLjIyICAgIGMyLjAxLTIuMDEsMi4wMS01LjI2OSwwLTcuMjc4cy01LjI2OS0yLjAxLTcuMjc4LDBDMjUuNjg4LDE1LjAwMSwyNS4zNzEsMTUuMzgxLDI1LDE2VjVjMC0wLjU1MywwLjQ0Ny0xLDEtMWgxOFYyMnoiLz4mI3hhOwk8L2c+JiN4YTs8L2c+JiN4YTs8L3N2Zz4=" vertex="1" parent="1">
          <mxGeometry x="410" y="327" width="48" height="48" as="geometry" />
        </mxCell>
        <mxCell id="OFjB-EBOkoPBZUKba4H1-45" style="edgeStyle=orthogonalEdgeStyle;rounded=0;orthogonalLoop=1;jettySize=auto;html=1;entryX=1;entryY=0.75;entryDx=0;entryDy=0;" edge="1" parent="1" source="OFjB-EBOkoPBZUKba4H1-42" target="OFjB-EBOkoPBZUKba4H1-44">
          <mxGeometry relative="1" as="geometry" />
        </mxCell>
        <mxCell id="OFjB-EBOkoPBZUKba4H1-42" value="动画" style="shape=image;verticalLabelPosition=bottom;verticalAlign=top;aspect=fixed;image=data:image/svg+xml,PHN2ZyB4bWxucz0iaHR0cDovL3d3dy53My5vcmcvMjAwMC9zdmciIHhtbG5zOnhsaW5rPSJodHRwOi8vd3d3LnczLm9yZy8xOTk5L3hsaW5rIiB2ZXJzaW9uPSIxLjEiIGlkPSJMYXllcl8xIiB4PSIwcHgiIHk9IjBweCIgd2lkdGg9IjQ4cHgiIGhlaWdodD0iNDhweCIgdmlld0JveD0iMCAwIDQ4IDQ4IiBlbmFibGUtYmFja2dyb3VuZD0ibmV3IDAgMCA0OCA0OCIgeG1sOnNwYWNlPSJwcmVzZXJ2ZSI+JiN4YTs8ZyBpZD0iY29sb3JfMzNfIj4mI3hhOwk8Zz4mI3hhOwkJPHBhdGggZmlsbD0iI0YxNjM2MiIgZD0iTTQ1LDIzaC01bC00LTEyYzAtMC41NTMtMC40NDctMS0xLTFoLTFoLTVIN2MtMC41NTMsMC0xLDAuNDQ3LTEsMXYyNGMwLDAuNTUzLDAuNDQ3LDEsMSwxaDI3ICAgIGMwLjE4NiwwLDAuMzUxLTAuMDY0LDAuNS0wLjE1M0MzNC42NDksMzUuOTM2LDM0LjgxNCwzNiwzNSwzNmg4YzAuNTUzLDAsMy0yLjQ0NywzLTN2LTlDNDYsMjMuNDQ3LDQ1LjU1MywyMyw0NSwyM3oiLz4mI3hhOwk8L2c+JiN4YTs8L2c+JiN4YTs8ZyBpZD0ib3V0bGluZV8zM18iPiYjeGE7CTxnPiYjeGE7CQk8cGF0aCBmaWxsPSIjMzg0RDY4IiBkPSJNMjEuMjgxLDMxLjM2MmMtMC4zNzUsMC4zNzMtMC4zNzUsMC45NzgsMCwxLjM1MXMwLjk4MiwwLjM3MywxLjM1NywwbDQuMDczLTQuMDUzICAgIGMwLjM3NC0wLjM3MywwLjM3NC0wLjk3OCwwLTEuMzUxbC00LjA3My00LjA1M2MtMC4zNzUtMC4zNzMtMC45ODItMC4zNzMtMS4zNTcsMHMtMC4zNzUsMC45NzgsMCwxLjM1MUwyMy42ODYsMjdIMTYgICAgYy0xLjY1NiwwLTMtMS4zNDMtMy0zdi00YzAtMC41NTMtMC40NDctMS0xLTFzLTEsMC40NDctMSwxdjRjMCwyLjc2MiwyLjIzOCw1LDUsNWg3LjY1NUwyMS4yODEsMzEuMzYyeiBNNDEsMjYgICAgYzAuNTUzLDAsMS0wLjQ0NywxLTFzLTAuNDQ3LTEtMS0xaC0yYy0wLjU1MywwLTEsMC40NDctMSwxczAuNDQ3LDEsMSwxSDQxeiBNMTMsMzVjLTEuNjU2LDAtMywxLjM0My0zLDNzMS4zNDQsMywzLDNzMy0xLjM0MywzLTMgICAgUzE0LjY1NiwzNSwxMywzNXogTTEzLDM5Yy0wLjU1MywwLTEtMC40NDctMS0xczAuNDQ3LTEsMS0xczEsMC40NDcsMSwxUzEzLjU1MywzOSwxMywzOXogTTI4LDM1SDE4Yy0wLjU1MywwLTEsMC40NDctMSwxICAgIHMwLjQ0NywxLDEsMWgxMGMwLjU1MywwLDEtMC40NDcsMS0xUzI4LjU1MywzNSwyOCwzNXogTTQyLDIwaC0yYy0xLjEwNCwwLTItMC44OTYtMi0ybC0yLTdjMC0yLjIwOS0xLjc5MS00LTQtNEgzICAgIEMyLjQ0Nyw3LDIsNy40NDcsMiw4djI4YzAsMC41NTMsMC40NDcsMSwxLDFoNWMwLjU1MywwLDEtMC40NDcsMS0xcy0wLjQ0Ny0xLTEtMUg0VjloMjhjMS4xMDQsMCwyLDAuODk2LDIsMmwyLDcgICAgYzAsMi4yMDksMS43OTEsNCw0LDRoMmMxLjEwNCwwLDIsMC44OTYsMiwydjljMCwxLjEwNC0wLjg5NiwyLTIsMmgtNGMtMC41NTMsMC0xLDAuNDQ3LTEsMXMwLjQ0NywxLDEsMWg0YzIuMjA5LDAsNC0xLjc5MSw0LTR2LTkgICAgQzQ2LDIxLjc5MSw0NC4yMDksMjAsNDIsMjB6IE0zMiwyMmMxLjEwNCwwLDItMC44OTYsMi0ybC0yLTdjMC0xLjEwNC0wLjg5Ni0yLTItMmgtNGMtMS4xMDQsMC0yLDAuODk2LTIsMnY3YzAsMS4xMDQsMC44OTYsMiwyLDIgICAgSDMyeiBNMjYsMTNoNGwyLDdoLTZWMTN6IE0zMywzNWMtMS42NTYsMC0zLDEuMzQzLTMsM3MxLjM0NCwzLDMsM3MzLTEuMzQzLDMtM1MzNC42NTYsMzUsMzMsMzV6IE0zMywzOWMtMC41NTMsMC0xLTAuNDQ3LTEtMSAgICBzMC40NDctMSwxLTFzMSwwLjQ0NywxLDFTMzMuNTUzLDM5LDMzLDM5eiIvPiYjeGE7CTwvZz4mI3hhOzwvZz4mI3hhOzwvc3ZnPg==" vertex="1" parent="1">
          <mxGeometry x="537" y="470" width="48" height="48" as="geometry" />
        </mxCell>
        <mxCell id="OFjB-EBOkoPBZUKba4H1-44" value="结束彩蛋" style="shape=image;verticalLabelPosition=bottom;verticalAlign=top;aspect=fixed;image=data:image/svg+xml,PHN2ZyB4bWxucz0iaHR0cDovL3d3dy53My5vcmcvMjAwMC9zdmciIHhtbG5zOnhsaW5rPSJodHRwOi8vd3d3LnczLm9yZy8xOTk5L3hsaW5rIiB2ZXJzaW9uPSIxLjEiIGlkPSJMYXllcl8xIiB4PSIwcHgiIHk9IjBweCIgd2lkdGg9IjQ4cHgiIGhlaWdodD0iNDhweCIgdmlld0JveD0iMCAwIDQ4IDQ4IiBlbmFibGUtYmFja2dyb3VuZD0ibmV3IDAgMCA0OCA0OCIgeG1sOnNwYWNlPSJwcmVzZXJ2ZSI+JiN4YTs8ZyBpZD0iY29sb3JfNTlfIj4mI3hhOwk8Zz4mI3hhOwkJPHBhdGggZmlsbD0iI0YxNjM2MiIgZD0iTTQ0LDVIN0M2LjQ0OCw1LDYsNS40NDcsNiw2djM4YzAsMC41NTMsMC40NDgsMSwxLDFoMzdjMC41NTMsMCwxLTAuNDQ3LDEtMVY2QzQ1LDUuNDQ3LDQ0LjU1Myw1LDQ0LDV6Ii8+JiN4YTsJPC9nPiYjeGE7PC9nPiYjeGE7PGcgaWQ9Im91dGxpbmVfNTdfIj4mI3hhOwk8Zz4mI3hhOwkJPHBhdGggZmlsbD0iIzM4NEQ2OCIgZD0iTTQ1LDJIM0MyLjQ0OCwyLDIsMi40NDcsMiwzdjQyYzAsMC41NTMsMC40NDgsMSwxLDFoNDJjMC41NTMsMCwxLTAuNDQ3LDEtMVYzQzQ2LDIuNDQ3LDQ1LjU1MywyLDQ1LDJ6ICAgICBNNCw0aDE4YzAuNTUyLDAsMSwwLjQ0NywxLDF2MTFjLTAuMzAzLTAuNTg1LTAuNjktMS4wMDMtMS4xOTMtMS41MDJjLTIuMDE1LTIuMDA0LTUuMjgzLTIuMDA0LTcuMjk4LDAgICAgYy0yLjAxNiwyLjAwNC0yLjAxNiw1LjI1MywwLDcuMjU3QzE1LjAyOSwyMi4yNzIsMTUuNDQ1LDIyLjY4MSwxNiwyM0g1Yy0wLjU1MiwwLTEtMC40NDctMS0xVjR6IE0yMyw0M2MwLDAuNTUzLTAuNDQ4LDEtMSwxSDRWMjYgICAgYzAtMC41NTMsMC40NDgtMSwxLTFoMTQuODEzYy0wLjIxMywwLjE1NC0wLjQyNywwLjMwNy0wLjYyLDAuNDk4QzE3LjQyOSwyNy4yNTIsMTcuMDM3LDMzLjUyLDE3LDM1YzAsMC41NTMsMC40NDgsMSwxLDEgICAgczEtMC40NDcsMS0xYzAsMCwwLjAyNS01LjQwNCwxLjU5Ni03Ljk5NUMyMS4wODMsMjYuMjAzLDIyLjE0MSwyNC45NjMsMjMsMjVWNDN6IE0yMywyM2MtMC4xMjgsMC4xMjctNC4zODEtMC4wNDYtNi45NzYtMi42NDEgICAgYy0xLjIzNy0xLjIzNi0xLjI2NS0zLjIwNy0wLjA1Ni00LjQxYzEuMjA5LTEuMjAyLDMuMTk5LTEuMTgxLDQuNDM2LDAuMDU2QzIyLjk5OSwxOC42MDEsMjMuMDI5LDIyLjk3MSwyMywyM3ogTTQ0LDQ0SDI2ICAgIGMtMC41NTMsMC0xLTAuNDQ3LTEtMVYyNWMwLjg1OS0wLjAzNywxLjkxNywxLjIwMywyLjQwNCwyLjAwNUMyOC45NzUsMjkuNTk2LDI5LDM1LDI5LDM1YzAsMC41NTMsMC40NDcsMSwxLDFzMS0wLjQ0NywxLTEgICAgYy0wLjAzNy0xLjQ4LTAuNDI5LTcuNzQ4LTIuMTkzLTkuNTAyQzI4LjYxNSwyNS4zMDcsMjguNCwyNS4xNTQsMjguMTg4LDI1SDQzYzAuNTUzLDAsMSwwLjQ0NywxLDFWNDR6IE0yNy41ODYsMTYuMDE0ICAgIGMxLjIzNi0xLjIzNiwzLjIxNy0xLjI2Miw0LjQyMy0wLjA1NnMxLjE4MSwzLjE4Ni0wLjA1Niw0LjQyM0MyOS4zNTQsMjIuOTc5LDI1LjEyNywyMy4xMjcsMjUsMjMgICAgQzI0Ljk3MSwyMi45NzEsMjUuMDIyLDE4LjU3NywyNy41ODYsMTYuMDE0eiBNNDQsMjJjMCwwLjU1My0wLjQ0NywxLTEsMUgzMmMwLjQ3Ny0wLjMxNSwwLjk2MS0wLjcxNywxLjQ2NS0xLjIyICAgIGMyLjAxLTIuMDEsMi4wMS01LjI2OSwwLTcuMjc4cy01LjI2OS0yLjAxLTcuMjc4LDBDMjUuNjg4LDE1LjAwMSwyNS4zNzEsMTUuMzgxLDI1LDE2VjVjMC0wLjU1MywwLjQ0Ny0xLDEtMWgxOFYyMnoiLz4mI3hhOwk8L2c+JiN4YTs8L2c+JiN4YTs8L3N2Zz4=" vertex="1" parent="1">
          <mxGeometry x="200" y="518" width="48" height="48" as="geometry" />
        </mxCell>
      </root>
    </mxGraphModel>
  </diagram>
</mxfile>
